ModelForces
version=1
nRows=4
nColumns=155
inDegrees=no

This file contains the forces exerted on a model during a simulation.

A force is a generalized force, meaning that it can be either a force (N) or a torque (Nm).

Units are S.I. units (second, meters, Newtons, ...)
Angles are in degrees.

endheader
time	glut_med1_r	glut_med2_r	glut_med3_r	glut_min1_r	glut_min2_r	glut_min3_r	semimem_r	semiten_r	bifemlh_r	bifemsh_r	sar_r	add_long_r	add_brev_r	add_mag1_r	add_mag2_r	add_mag3_r	tfl_r	pect_r	grac_r	glut_max1_r	glut_max2_r	glut_max3_r	iliacus_r	psoas_r	quad_fem_r	gem_r	peri_r	rect_fem_r	vas_med_r	vas_int_r	vas_lat_r	med_gas_r	lat_gas_r	soleus_r	tib_post_r	flex_dig_r	flex_hal_r	tib_ant_r	per_brev_r	per_long_r	per_tert_r	ext_dig_r	ext_hal_r	glut_med1_l	glut_med2_l	glut_med3_l	glut_min1_l	glut_min2_l	glut_min3_l	semimem_l	semiten_l	bifemlh_l	bifemsh_l	sar_l	add_long_l	add_brev_l	add_mag1_l	add_mag2_l	add_mag3_l	tfl_l	pect_l	grac_l	glut_max1_l	glut_max2_l	glut_max3_l	iliacus_l	psoas_l	quad_fem_l	gem_l	peri_l	rect_fem_l	vas_med_l	vas_int_l	vas_lat_l	med_gas_l	lat_gas_l	soleus_l	tib_post_l	flex_dig_l	flex_hal_l	tib_ant_l	per_brev_l	per_long_l	per_tert_l	ext_dig_l	ext_hal_l	ercspn_r	ercspn_l	intobl_r	intobl_l	extobl_r	extobl_l	femur_lat_meniscii_r.femur_lat_r.force.X	femur_lat_meniscii_r.femur_lat_r.force.Y	femur_lat_meniscii_r.femur_lat_r.force.Z	femur_lat_meniscii_r.femur_lat_r.torque.X	femur_lat_meniscii_r.femur_lat_r.torque.Y	femur_lat_meniscii_r.femur_lat_r.torque.Z	femur_lat_meniscii_r.meniscus_lat_r.force.X	femur_lat_meniscii_r.meniscus_lat_r.force.Y	femur_lat_meniscii_r.meniscus_lat_r.force.Z	femur_lat_meniscii_r.meniscus_lat_r.torque.X	femur_lat_meniscii_r.meniscus_lat_r.torque.Y	femur_lat_meniscii_r.meniscus_lat_r.torque.Z	femur_med_meniscii_r.femur_med_r.force.X	femur_med_meniscii_r.femur_med_r.force.Y	femur_med_meniscii_r.femur_med_r.force.Z	femur_med_meniscii_r.femur_med_r.torque.X	femur_med_meniscii_r.femur_med_r.torque.Y	femur_med_meniscii_r.femur_med_r.torque.Z	femur_med_meniscii_r.meniscus_med_r.force.X	femur_med_meniscii_r.meniscus_med_r.force.Y	femur_med_meniscii_r.meniscus_med_r.force.Z	femur_med_meniscii_r.meniscus_med_r.torque.X	femur_med_meniscii_r.meniscus_med_r.torque.Y	femur_med_meniscii_r.meniscus_med_r.torque.Z	femur_med_tibia_r.tibia_upper_r.force.X	femur_med_tibia_r.tibia_upper_r.force.Y	femur_med_tibia_r.tibia_upper_r.force.Z	femur_med_tibia_r.tibia_upper_r.torque.X	femur_med_tibia_r.tibia_upper_r.torque.Y	femur_med_tibia_r.tibia_upper_r.torque.Z	femur_med_tibia_r.femur_med_r.force.X	femur_med_tibia_r.femur_med_r.force.Y	femur_med_tibia_r.femur_med_r.force.Z	femur_med_tibia_r.femur_med_r.torque.X	femur_med_tibia_r.femur_med_r.torque.Y	femur_med_tibia_r.femur_med_r.torque.Z	femur_lat_tibia_r.tibia_upper_r.force.X	femur_lat_tibia_r.tibia_upper_r.force.Y	femur_lat_tibia_r.tibia_upper_r.force.Z	femur_lat_tibia_r.tibia_upper_r.torque.X	femur_lat_tibia_r.tibia_upper_r.torque.Y	femur_lat_tibia_r.tibia_upper_r.torque.Z	femur_lat_tibia_r.femur_lat_r.force.X	femur_lat_tibia_r.femur_lat_r.force.Y	femur_lat_tibia_r.femur_lat_r.force.Z	femur_lat_tibia_r.femur_lat_r.torque.X	femur_lat_tibia_r.femur_lat_r.torque.Y	femur_lat_tibia_r.femur_lat_r.torque.Z	aACL_R	pACL_R	aPCL_R	pPCL_R	aMCL_R	mMCL_R	pMCL_R	aLCL_R	mLCL_R	pLCL_R	aPCL_L	pPCL_L	aMCL_L	aLCL_L
      0.07608450	      0.00000000	     14.06397153	     14.63868266	      6.52448588	      7.42219446	      6.59011897	      0.00000000	    236.55036166	    320.99170560	    431.93159537	    139.46179764	     14.43387429	     10.07874948	      0.00000000	      0.00000000	     10.62536578	      4.59023866	      0.00000000	    121.67940218	      8.80057688	     14.12358961	     10.74179621	     38.90067849	     31.45372286	      0.00000000	      5.47501598	      0.00000000	     46.92973645	      0.00000000	      0.00000000	      0.00000000	     54.61654099	     27.78950064	      0.00000000	     31.32173007	     11.08683310	      8.81548496	     16.67509300	      3.23330605	     14.53586694	      0.00000000	     15.69070639	      5.29801808	      0.00000000	     14.06397153	     14.63868266	      6.52448588	      7.42219446	      6.59011897	      0.00000000	     10.98311303	      9.20982822	     18.06358073	      3.71390767	     14.43387429	     10.07874948	      0.00000000	      0.00000000	     10.62536578	      8.06648214	      0.00000000	      3.86757651	      8.80057688	     14.12358961	     10.74179621	     38.90067849	     31.45372286	      0.00000000	      5.47501598	      0.00000000	     27.59671976	      0.00000000	      0.00000000	      0.00000000	      0.00000000	      0.00000000	     39.23150760	     59.82378541	     11.02656013	      9.74052740	     10.76548964	     10.18802963	     22.23326709	      4.79535101	      6.88370592	      2.07752887	     61.48064563	     61.48064563	     23.67733841	     23.67733841	     40.24985270	     40.24985270	     29.41033110	    139.22046062	     12.79430530	     -8.61967940	      0.69636486	     12.44328668	    -29.41033110	   -139.22046062	    -12.79430530	      4.16871604	     -0.90342949	      0.04132541	     15.08875467	     61.65522903	      0.66445806	      0.99502649	     -0.28145283	      6.07693031	    -15.08875467	    -61.65522903	     -0.66445806	     -1.04951760	      0.22667865	      0.24298275	    -47.51485822	   -731.84734707	     90.52317179	    -15.55215389	      1.26639664	      2.85414783	     47.51485822	    731.84734707	    -90.52317179	     52.61692407	     -0.63104502	     21.73743084	    -14.63285997	   -460.96241548	   -100.36743572	     15.52671241	     -0.91231038	      1.95672824	     14.63285997	    460.96241548	    100.36743572	    -52.49199147	     -0.01064055	      7.67142888	     93.66566158	     78.45248911	      0.00000000	      0.00000000	      0.00000000	     -5.09091187	    -23.57413079	      0.00000000	      0.00000000	      0.00000000	      0.00000000	      0.00000000	      0.00000001	      0.00000000
      0.07728527	      0.00000000	     13.98182487	     14.61780194	      6.46227565	      7.35345481	      6.73045623	      0.00000000	    236.40308493	    318.40948671	    430.44424200	    139.73267028	     14.29036993	      9.98345680	      0.00000000	      0.00000000	     10.54680458	      4.61691440	      0.00000000	    121.78510321	      8.78733576	     13.99835960	     10.63684372	     38.63213669	     31.14874842	      0.00000000	      5.43703737	      0.00000000	     45.25248463	      0.00000000	      0.00000000	      0.00000000	     50.74908450	     25.66429872	      0.00000000	     29.57270316	     11.50941664	      9.13113212	     28.80899591	      3.07111984	     13.32831101	      1.12285562	     17.15893266	      5.73863553	      0.00000000	     13.98182487	     14.61780194	      6.46227565	      7.35345481	      6.73045623	      0.00000000	     10.87069948	      9.91139822	     17.88790567	      3.67864477	     14.29036993	      9.98345680	      0.00000000	      0.00000000	     10.54680458	      8.02265591	      0.00000000	      3.83029443	      8.78733576	     13.99835960	     10.63684372	     38.63213669	     31.14874842	      0.00000000	      5.43703737	      0.00000000	     27.49874109	      0.00000000	      0.00000000	      0.00000000	      0.00000000	      0.00000000	     41.02815527	     59.80567273	     11.03803265	      9.83270435	     11.65193906	     10.19701569	     22.27143860	      4.75512380	      7.01846518	      2.13059145	     60.89332424	     60.89332424	     23.43991811	     23.43991811	     40.02633904	     40.02633904	     25.01989098	    141.07153826	     13.37079660	     -8.90488141	      0.58764478	     10.58111732	    -25.01989098	   -141.07153826	    -13.37079660	      4.23723304	     -0.78824215	      0.26959246	     13.98860607	     61.58605826	      0.43118548	      1.08657218	     -0.25684181	      5.60815620	    -13.98860607	    -61.58605826	     -0.43118548	     -1.05255539	      0.20772373	      0.30377973	    -48.36587662	   -731.77608871	     87.19083437	    -15.40699259	      1.30430495	      3.12390781	     48.36587662	    731.77608871	    -87.19083437	     51.18871111	     -0.68057863	     21.95948771	     -3.28367710	   -448.04853576	    -97.94142296	     15.10551872	     -0.64850471	      2.49851954	      3.28367710	    448.04853576	     97.94142296	    -51.18989320	     -0.23853190	      2.76916875	     94.05128264	     77.65979983	      0.00000000	      0.00000000	      0.00000000	     -4.39977066	    -23.78160700	      0.00000000	      0.00000000	      0.00000000	      0.00000000	      0.00000000	      0.00000001	      0.00000000
      0.07848604	      0.00000000	     13.89237538	     14.58244923	      6.40110588	      7.28584121	      6.84170641	      0.00000000	    236.24410112	    315.45979515	    428.48251213	    139.94148300	     14.14929081	      9.88975313	      0.00000000	      0.00000000	     10.46711036	      4.63747437	      0.00000000	    121.86339301	      8.76499330	     13.87303830	     10.53330587	     38.36823998	     30.84903882	      0.00000000	      5.39915148	      0.00000000	     46.22901699	      0.00000000	      0.00000000	      0.00000000	     46.93607055	     23.53081966	      0.00000000	     27.60269488	     11.74095237	      9.33347034	     36.20237307	      3.02339437	     12.40205601	      4.12510438	     18.57871318	      6.05250661	      0.00000000	     13.89237538	     14.58244923	      6.40110588	      7.28584121	      6.84170641	      0.00000000	     10.76019435	     10.53644331	     17.71518852	      3.64397081	     14.14929081	      9.88975313	      0.00000000	      0.00000000	     10.46711036	      7.97829006	      0.00000000	      3.79363813	      8.76499330	     13.87303830	     10.53330587	     38.36823998	     30.84903882	      0.00000000	      5.39915148	      0.00000000	     27.39342425	      0.00000000	      0.00000000	      0.00000000	      0.00000000	      0.00000000	     42.68333502	     59.78267648	     11.02404868	      9.89882713	     12.42611252	     10.19990860	     22.30249673	      4.71495478	      7.16229619	      2.18708635	     60.31583323	     60.31583323	     23.20630629	     23.20630629	     39.80673314	     39.80673314	     24.23268179	    142.32474683	     13.31391164	     -8.91327002	      0.56834421	     10.24510964	    -24.23268179	   -142.32474683	    -13.31391164	      4.26989313	     -0.76866558	      0.34773244	     15.13775794	     61.95947036	     -0.12034273	      1.31699607	     -0.27739984	      6.07802265	    -15.13775794	    -61.95947036	      0.12034273	     -1.07096053	      0.22966141	      0.29194236	    -58.69879229	   -724.10092897	     85.95620709	    -15.22246735	      1.50398345	      2.94914379	     58.69879229	    724.10092897	    -85.95620709	     50.50173927	     -0.90486502	     26.18979737	     -1.45187828	   -436.03273204	    -94.77731261	     14.67512945	     -0.61559349	      2.65160837	      1.45187828	    436.03273204	     94.77731261	    -49.59191119	     -0.25852229	      1.90473530	     95.88934937	     78.27814573	      0.00000000	      0.00000000	      0.00000000	     -3.09521037	    -23.29287475	      0.00000000	      0.00000000	      0.00000000	      0.00000000	      0.00000000	      0.00000001	      0.00000000
      0.07968681	      0.00000000	     13.79704511	     14.53436117	      6.34095806	      7.21934120	      6.92816962	      0.43072401	    236.11377305	    312.37433149	    426.40076946	    140.17394688	     14.01059308	      9.79761015	      0.00000000	      0.00000000	     10.38648559	      4.65311889	      0.00000000	    121.95627120	      8.73471587	     13.74795496	     10.43120618	     38.10890186	     30.55449297	      0.00000000	      5.36141124	      0.00000000	     44.83579909	      0.00000000	      0.00000000	      0.00000000	     43.30728601	     21.45816531	      0.00000000	     25.48737933	     11.78282794	      9.42012140	     30.28676049	      3.05941687	     11.71378610	      7.37621087	     19.50351925	      6.15740602	      0.00000000	     13.79704511	     14.53436117	      6.34095806	      7.21934120	      6.92816962	      0.00000000	     10.65156186	     11.09428802	     17.54537629	      3.60987529	     14.01059308	      9.79761015	      0.00000000	      0.00000000	     10.38648559	      7.93345497	      0.00000000	      3.75759640	      8.73471587	     13.74795496	     10.43120618	     38.10890186	     30.55449297	      0.00000000	      5.36141124	      0.00000000	     27.28113757	      0.00000000	      0.00000000	      0.00000000	      0.00000000	      0.00000000	     44.20839825	     59.75478133	     10.98659148	      9.93943916	     13.10330371	     10.19849203	     22.32676082	      4.67491022	      7.31460777	      2.24680323	     59.74799700	     59.74799700	     22.97645997	     22.97645997	     39.59096110	     39.59096110	     21.43160218	    144.31993825	     13.88076512	     -9.20151966	      0.50183527	      9.05756920	    -21.43160218	   -144.31993825	    -13.88076512	      4.34596642	     -0.70131721	      0.51333741	     14.59951162	     62.32213138	      0.12563814	      1.22240844	     -0.27082394	      5.84503193	    -14.59951162	    -62.32213138	     -0.12563814	     -1.06991129	      0.22263851	      0.33648860	    -58.45848698	   -718.07427408	     82.58921628	    -14.97027158	      1.51793569	      3.22207811	     58.45848698	    718.07427408	    -82.58921628	     48.93687653	     -0.92979849	     25.93381698	      5.45783352	   -426.84327731	    -92.63650919	     14.35959101	     -0.46071070	      3.02181374	     -5.45783352	    426.84327731	     92.63650919	    -48.49094820	     -0.39251264	     -1.10130333	     96.53078997	     77.67172376	      0.00000000	      0.00000000	      0.00000000	     -2.17121132	    -23.19128635	      0.00000000	      0.00000000	      0.00000000	      0.00000000	      0.00000000	      0.00000001	      0.00000000
